<?xml version="1.0" encoding="UTF-8"?>
<!DOCTYPE svg PUBLIC "-//W3C//DTD SVG 1.1//EN" "http://www.w3.org/Graphics/SVG/1.1/DTD/svg11.dtd">
<!-- Creator: CorelDRAW 2019 (64-Bit Versión de evaluación) -->
<svg xmlns="http://www.w3.org/2000/svg" xml:space="preserve" width="24.0771mm" height="24.0356mm" version="1.1" style="shape-rendering:geometricPrecision; text-rendering:geometricPrecision; image-rendering:optimizeQuality; fill-rule:evenodd; clip-rule:evenodd"
viewBox="0 0 1449.19 1446.69"
 xmlns:xlink="http://www.w3.org/1999/xlink">
 <defs>
  <style type="text/css">
   <![CDATA[
    .fil0 {fill:url(#id0)}
    .fil1 {fill:url(#id1)}
   ]]>
  </style>
  <linearGradient id="id0" gradientUnits="userSpaceOnUse" x1="0.24" y1="722.63" x2="1449.06" y2="722.63">
   <stop offset="0" style="stop-opacity:1; stop-color:#0094D5"/>
   <stop offset="1" style="stop-opacity:1; stop-color:#027CC0"/>
  </linearGradient>
  <linearGradient id="id1" gradientUnits="userSpaceOnUse" x1="0.01" y1="724.73" x2="1449.18" y2="724.73">
   <stop offset="0" style="stop-opacity:1; stop-color:#E16338"/>
   <stop offset="1" style="stop-opacity:1; stop-color:#FF7200"/>
  </linearGradient>
 </defs>
 <g id="Capa_x0020_1">
  <metadata id="CorelCorpID_0Corel-Layer"/>
  <g id="_2466743481328">
   <path class="fil0" d="M422.51 252.02c84.49,52.3 168.99,103.95 253.51,155.88 30.28,18.61 12.86,25.79 -6.93,37.29 -136.15,79.28 -270.8,169.75 -406.57,250.94 -17.15,10.26 -21.93,1.66 -38.98,-8.58 -63.25,-38.06 -126.02,-78.02 -189.55,-113.84 -37.79,-21.32 -34.24,-43.49 -33.12,-122.82l0.15 -10.82c1.04,-101.79 0.46,-209.91 0.18,-312.12 -0.07,-24.23 -2.74,-104.05 2.56,-120.64 6.66,-20.86 39.04,8.87 48.93,15.23 55.81,35.96 112.88,69.1 168.96,104.08 66.95,41.78 133.87,83.9 200.85,125.39zm581.17 917.95c-75.3,-46.86 -150.69,-92.94 -225.98,-139.67 -20.33,-12.62 -20.9,-16.19 -0.19,-29.07 46.23,-28.75 92.94,-56.27 139.28,-84.79 90.4,-55.69 180.79,-111.76 271.22,-167.12 21.69,-13.29 21.67,-11.56 43.3,2.02 62.4,39.18 124.7,78.47 187.57,113.58 36.62,20.39 29.97,54.53 29.29,132.46 -1.02,129.41 0.73,257.03 0.55,385.9 -0.12,86.77 -8.73,64.14 -40.87,40.84 -59.36,-43.05 -123.02,-78.22 -183.4,-116.09 -73.58,-46.15 -147.16,-92.2 -220.77,-138.06z"/>
   <path class="fil1" d="M361.87 668.44c334.98,-207.2 670.68,-410 1004.93,-623.24 11.66,-7.86 71.41,-58.5 78.26,-37.24 7.47,30.76 2.42,190.8 2.8,240.96 0.25,32.97 3.36,301.38 -2.81,308.77 -11.09,13.27 -84.9,55.18 -100.62,64.59 -93.67,56.07 -187.02,112.51 -280.53,169.97 -331.25,203.84 -663.18,406.34 -993.63,616.71 -10.83,6.89 -55.19,40.71 -61.78,37.51 -12.42,-6.04 -7.63,-96.75 -7.38,-121.49 1.24,-130.72 -0.82,-259.66 -0.58,-389.85 0.08,-46.34 6.45,-48.1 24.86,-60.76 23.09,-15.88 48.84,-29.11 72.52,-43.75 87.95,-54.38 176.01,-107.81 263.95,-162.19z"/>
  </g>
 </g>
</svg>
